<?xml version="1.0"?>
<svg xmlns="http://www.w3.org/2000/svg" xmlns:xlink="http://www.w3.org/1999/xlink" xmlns:svgjs="http://svgjs.com/svgjs" version="1.1" width="512" height="512" x="0" y="0" viewBox="0 0 512 512" style="enable-background:new 0 0 512 512" xml:space="preserve" class=""><g transform="matrix(0.54,0,0,0.54,117.75976661682103,117.75999473571761)"><g xmlns="http://www.w3.org/2000/svg"><path d="m256 381.533c61.139 0 110.878-49.74 110.878-110.878s-49.739-110.878-110.878-110.878c-61.138 0-110.878 49.739-110.878 110.877s49.74 110.879 110.878 110.879zm0-201.756c50.11 0 90.878 40.768 90.878 90.877 0 50.11-40.768 90.878-90.878 90.878s-90.878-40.768-90.878-90.878c0-50.109 40.768-90.877 90.878-90.877z" fill="#ffffff" data-original="#000000" style="" class=""/><path d="m233.347 320.714c2.761 1.527 5.813 2.286 8.86 2.286 3.384 0 6.763-.937 9.731-2.799l54.254-34.039c5.371-3.37 8.578-9.167 8.578-15.508s-3.207-12.139-8.578-15.508l-54.254-34.039c-5.642-3.539-12.766-3.735-18.592-.511-5.827 3.223-9.446 9.361-9.446 16.02v68.077c0 6.66 3.62 12.798 9.447 16.021zm10.553-81.039 49.379 30.98-49.379 30.98z" fill="#ffffff" data-original="#000000" style="" class=""/><path d="m130.698 421.489h250.604c5.522 0 10-4.477 10-10s-4.478-10-10-10h-250.604c-5.523 0-10 4.477-10 10s4.477 10 10 10z" fill="#ffffff" data-original="#000000" style="" class=""/><path d="m480.729 43.989h-449.458c-17.243 0-31.271 14.029-31.271 31.272v361.479c0 17.243 14.028 31.271 31.271 31.271h449.457c17.243 0 31.271-14.028 31.271-31.271v-361.479c.001-17.243-14.027-31.272-31.27-31.272zm-460.729 31.272c0-6.215 5.056-11.271 11.271-11.271h449.457c6.215 0 11.271 5.056 11.271 11.271v42.995h-471.999zm472 361.478c0 6.215-5.057 11.271-11.271 11.271h-449.458c-6.215 0-11.271-5.056-11.271-11.271v-298.484h472z" fill="#ffffff" data-original="#000000" style="" class=""/><path d="m171.245 81.123h-116.979c-5.523 0-10 4.477-10 10s4.477 10 10 10h116.979c5.523 0 10-4.477 10-10s-4.477-10-10-10z" fill="#ffffff" data-original="#000000" style="" class=""/><path d="m409.202 81.123h-10.659c-5.522 0-10 4.477-10 10s4.478 10 10 10h10.659c5.522 0 10-4.477 10-10s-4.477-10-10-10z" fill="#ffffff" data-original="#000000" style="" class=""/><path d="m360.67 81.123h-10.659c-5.522 0-10 4.477-10 10s4.478 10 10 10h10.659c5.522 0 10-4.477 10-10s-4.478-10-10-10z" fill="#ffffff" data-original="#000000" style="" class=""/><path d="m457.734 81.123h-10.66c-5.522 0-10 4.477-10 10s4.478 10 10 10h10.66c5.522 0 10-4.477 10-10s-4.477-10-10-10z" fill="#ffffff" data-original="#000000" style="" class=""/></g></g></svg>
